<svg width="258" height="258" viewBox="0 0 258 258" fill="none" xmlns="http://www.w3.org/2000/svg">
<g clip-path="url(#clip0_486_18)">
<path d="M27.6593 155.645C42.5967 211.392 99.8979 244.475 155.645 229.538C211.392 214.6 244.475 157.299 229.538 101.552C214.6 45.8045 157.299 12.7216 101.552 27.659C45.8048 42.5964 12.7219 99.8977 27.6593 155.645Z" stroke="white" stroke-opacity="0.2"/>
<path d="M66.2964 145.292C75.5162 179.701 110.884 200.12 145.292 190.9C179.701 181.681 200.121 146.313 190.901 111.904C181.681 77.4958 146.313 57.0763 111.905 66.296C77.4963 75.5158 57.0767 110.883 66.2964 145.292Z" stroke="white" stroke-opacity="0.2"/>
<path d="M147.72 122.758C147.973 122.791 148.211 122.898 148.403 123.066C148.596 123.234 148.734 123.455 148.8 123.703C148.866 123.949 148.857 124.21 148.775 124.452C148.692 124.693 148.54 124.905 148.336 125.06L138.283 132.796C138.095 132.94 137.951 133.134 137.865 133.356C137.78 133.577 137.758 133.818 137.801 134.052L140.096 146.528C140.303 147.657 139.044 148.473 138.099 147.825L127.632 140.655C127.436 140.521 127.208 140.444 126.972 140.431C126.736 140.418 126.5 140.471 126.291 140.583L115.133 146.621C114.91 146.742 114.655 146.795 114.401 146.772C114.148 146.748 113.907 146.65 113.709 146.489C113.511 146.329 113.366 146.115 113.29 145.871C113.215 145.628 113.213 145.368 113.284 145.124L116.869 132.953C116.935 132.727 116.938 132.485 116.877 132.257C116.815 132.028 116.692 131.82 116.521 131.656L107.33 122.909C107.145 122.734 107.017 122.508 106.961 122.259C106.905 122.011 106.923 121.752 107.015 121.514C107.106 121.276 107.265 121.071 107.473 120.924C107.681 120.777 107.928 120.695 108.182 120.688L120.867 120.338C121.104 120.331 121.334 120.259 121.532 120.129C121.731 120 121.89 119.818 121.991 119.604L127.471 108.162C127.582 107.933 127.757 107.741 127.976 107.612C128.195 107.482 128.447 107.42 128.702 107.433C128.956 107.446 129.2 107.534 129.404 107.686C129.608 107.838 129.763 108.047 129.849 108.287L134.1 120.239C134.18 120.463 134.319 120.66 134.504 120.809C134.688 120.959 134.91 121.054 135.146 121.086L147.72 122.758Z" stroke="#55E6A5" stroke-width="1.5" stroke-linecap="round" stroke-linejoin="round"/>
<path d="M51.2588 140.484L40.2447 145.409L40.0801 144.342L49.5666 140.21L49.5527 140.12L39.262 139.041L39.0748 137.828L48.5614 133.696L48.5475 133.607L38.2568 132.527L38.0913 131.455L50.0776 132.83L50.251 133.953L40.9087 138.126L40.92 138.199L51.0855 139.361L51.2588 140.484Z" fill="white"/>
<path d="M49.902 126.707L38.269 126.426L38.4317 119.678L39.3859 119.701L39.2489 125.387L43.6283 125.493L43.7567 120.165L44.711 120.188L44.5826 125.516L48.9734 125.621L49.1131 119.822L50.0674 119.845L49.902 126.707Z" fill="white"/>
<path d="M52.2056 110.955L41.0137 107.77L42.0417 104.158C42.2677 103.364 42.6094 102.744 43.0668 102.299C43.5216 101.85 44.0479 101.564 44.6456 101.443C45.2443 101.318 45.8698 101.348 46.5219 101.534C47.174 101.72 47.7241 102.022 48.172 102.441C48.6162 102.859 48.9157 103.377 49.0703 103.996C49.2213 104.614 49.1843 105.318 48.9594 106.109L48.1506 108.951L47.2325 108.689L48.0335 105.875C48.2004 105.288 48.2295 104.771 48.1208 104.322C48.0085 103.873 47.788 103.499 47.4594 103.201C47.1318 102.899 46.7239 102.678 46.2357 102.539C45.7476 102.401 45.2847 102.373 44.8472 102.457C44.4108 102.538 44.0278 102.742 43.6982 103.07C43.3698 103.394 43.121 103.853 42.952 104.446L42.2226 107.009L52.4965 109.933L52.2056 110.955Z" fill="white"/>
<path d="M55.9056 99.7338L45.3491 94.8383L46.9292 91.4311C47.2766 90.682 47.7023 90.1195 48.2065 89.7437C48.7088 89.3629 49.2577 89.1561 49.8533 89.1233C50.447 89.0855 51.0514 89.2092 51.6665 89.4944C52.2816 89.7797 52.7648 90.1603 53.1161 90.6364C53.4689 91.109 53.6613 91.6575 53.6933 92.2819C53.7252 92.9063 53.5691 93.5897 53.2249 94.3319L51.8791 97.2339L50.9977 96.8252L52.3315 93.9489C52.5865 93.3991 52.7073 92.8999 52.6941 92.4511C52.6825 91.999 52.5498 91.6055 52.2959 91.2706C52.0436 90.9323 51.6872 90.6564 51.2267 90.4429C50.7662 90.2293 50.322 90.1339 49.8939 90.1567C49.4623 90.1779 49.0668 90.3285 48.7073 90.6085C48.3494 90.8851 48.0413 91.3018 47.7832 91.8585L46.6621 94.276L56.3526 98.7699L55.9056 99.7338ZM53.3013 92.8705L59.2689 92.4813L58.7525 93.5947L52.797 93.9581L53.3013 92.8705Z" fill="white"/>
<path d="M62.3007 77.3752C63.2968 78.066 64.0406 78.8446 64.5322 79.711C65.0206 80.5753 65.2513 81.459 65.2242 82.3621C65.1962 83.26 64.9026 84.112 64.3435 84.9182C63.7844 85.7243 63.0882 86.2994 62.255 86.6435C61.4207 86.9823 60.5133 87.0743 59.5326 86.9197C58.551 86.7598 57.5622 86.3345 56.5662 85.6437C55.5702 84.9529 54.8268 84.177 54.3362 83.3158C53.8446 82.4494 53.6139 81.5656 53.6441 80.6647C53.6712 79.7615 53.9633 78.9084 54.5202 78.1054C55.0793 77.2992 55.776 76.7268 56.6102 76.388C57.4434 76.0439 58.352 75.9503 59.3357 76.1071C60.3164 76.2617 61.3047 76.6844 62.3007 77.3752ZM61.7114 78.2249C60.8555 77.6313 60.0232 77.2661 59.2145 77.1293C58.4027 76.9904 57.6634 77.0562 56.9964 77.3266C56.3295 77.597 55.778 78.0465 55.3419 78.6753C54.908 79.3009 54.6813 79.9734 54.6618 80.6928C54.6423 81.4122 54.8372 82.1282 55.2465 82.8408C55.6579 83.5502 56.2932 84.2029 57.1523 84.7987C58.0082 85.3923 58.8405 85.7575 59.6492 85.8942C60.4579 86.031 61.1972 85.9652 61.8673 85.697C62.5342 85.4266 63.0857 84.977 63.5218 84.3483C63.9578 83.7196 64.1856 83.0455 64.2051 82.3261C64.2268 81.6036 64.0319 80.8876 63.6205 80.1781C63.2059 79.4665 62.5695 78.8154 61.7114 78.2249Z" fill="white"/>
<path d="M62.0017 69.0195L71.8568 73.6325L71.9286 73.5597L67.1807 63.7689L67.9627 62.9761L73.2747 74.1611L72.4767 74.9702L61.2197 69.8124L62.0017 69.0195Z" fill="white"/>
<path d="M73.339 58.7289L80.4792 67.9171L79.6403 68.5691L72.5001 59.3809L73.339 58.7289Z" fill="white"/>
<path d="M88.8712 62.3122L85.9194 64.0177L80.098 53.9422L83.227 52.1344C84.188 51.5791 85.1251 51.3045 86.0385 51.3105C86.9552 51.3146 87.8116 51.5853 88.6077 52.1228C89.4038 52.6603 90.1041 53.4521 90.7086 54.4984C91.3188 55.5545 91.6558 56.5693 91.7196 57.543C91.7849 58.5115 91.5782 59.403 91.0995 60.2177C90.6242 61.0304 89.8814 61.7286 88.8712 62.3122ZM86.3619 62.6597L88.3396 61.517C89.2054 61.0167 89.8317 60.4274 90.2185 59.749C90.6052 59.0706 90.7616 58.3305 90.6878 57.5289C90.614 56.7272 90.3241 55.8886 89.8181 55.0129C89.3127 54.1456 88.7363 53.4812 88.089 53.0196C87.445 52.5561 86.7476 52.3182 85.9968 52.3058C85.2492 52.2915 84.4671 52.5203 83.6504 52.9921L81.4956 54.2371L86.3619 62.6597Z" fill="white"/>
<path d="M97.8546 57.8166L93.7349 46.9339L100.048 44.5442L100.386 45.4369L95.0665 47.4505L96.6174 51.5474L101.602 49.6606L101.94 50.5533L96.9554 52.4402L98.5103 56.5477L103.936 54.4939L104.274 55.3866L97.8546 57.8166Z" fill="white"/>
<path d="M116.838 52.5896L115.575 41.0219L122.285 40.2895L122.389 41.2384L116.735 41.8555L117.21 46.2103L122.508 45.632L122.612 46.5809L117.314 47.1592L117.79 51.5254L123.557 50.8959L123.661 51.8448L116.838 52.5896Z" fill="white"/>
<path d="M129.348 40.1007L130.572 40.1847L134.09 50.5862L134.192 50.5932L139.098 40.7695L140.322 40.8535L139.526 52.4626L138.528 52.3941L139.171 43.0241L139.08 43.0179L134.52 52.1192L133.557 52.0531L130.283 42.4144L130.192 42.4082L129.549 51.7782L128.551 51.7098L129.348 40.1007Z" fill="white"/>
<path d="M144.316 53.5543L147.147 42.2674L153.694 43.9093L153.462 44.8352L147.945 43.4518L146.88 47.7009L152.049 48.9972L151.817 49.9231L146.647 48.6267L145.579 52.8869L151.206 54.298L150.974 55.2238L144.316 53.5543Z" fill="white"/>
<path d="M155.649 56.8981L160.209 46.1924L163.664 47.6642C164.424 47.9878 165 48.3956 165.391 48.8876C165.788 49.3776 166.012 49.9198 166.063 50.514C166.12 51.1063 166.015 51.7143 165.75 52.3381C165.484 52.9619 165.119 53.4568 164.654 53.8229C164.193 54.1905 163.651 54.4001 163.028 54.4518C162.404 54.5034 161.717 54.3689 160.964 54.0483L158.021 52.7947L158.402 51.9008L161.318 53.1432C161.876 53.3807 162.379 53.4858 162.827 53.4585C163.278 53.4326 163.668 53.2875 163.994 53.0231C164.324 52.7603 164.589 52.3954 164.788 51.9284C164.987 51.4614 165.068 51.0143 165.032 50.5872C164.997 50.1565 164.834 49.766 164.543 49.4155C164.255 49.0665 163.829 48.7717 163.264 48.5312L160.813 47.487L156.627 57.3145L155.649 56.8981ZM162.427 54.0786L163.004 60.0309L161.875 59.5499L161.324 53.6088L162.427 54.0786Z" fill="white"/>
<path d="M178.131 59.9146C178.25 59.5321 178.314 59.1437 178.324 58.7495C178.336 58.3521 178.282 57.9648 178.164 57.5877C178.051 57.2094 177.867 56.8534 177.613 56.5197C177.362 56.188 177.035 55.8924 176.629 55.6329C175.992 55.2243 175.314 55.0244 174.598 55.0333C173.881 55.0421 173.176 55.2651 172.482 55.7023C171.792 56.1415 171.164 56.8013 170.6 57.6816C170.038 58.5587 169.704 59.4038 169.597 60.2169C169.49 61.0301 169.584 61.7675 169.88 62.4294C170.181 63.09 170.662 63.6319 171.322 64.0548C171.925 64.441 172.543 64.6483 173.177 64.6766C173.811 64.705 174.417 64.5531 174.994 64.2211C175.574 63.8911 176.081 63.3811 176.514 62.6913L176.743 62.9661L173.604 60.9555L174.119 60.1518L177.841 62.5363L177.326 63.34C176.791 64.1757 176.159 64.7898 175.431 65.1824C174.703 65.575 173.937 65.7482 173.135 65.7019C172.332 65.6556 171.548 65.3872 170.782 64.8969C169.928 64.3493 169.312 63.6644 168.934 62.8422C168.559 62.0169 168.433 61.1134 168.558 60.1319C168.689 59.1492 169.081 58.1475 169.734 57.1268C170.227 56.3582 170.773 55.7298 171.374 55.2418C171.974 54.7538 172.602 54.4093 173.257 54.2082C173.916 54.0091 174.576 53.9577 175.239 54.0538C175.904 54.1468 176.547 54.3925 177.169 54.7909C177.705 55.1342 178.14 55.5323 178.475 55.9854C178.813 56.4405 179.057 56.9247 179.205 57.4379C179.358 57.9499 179.419 58.4684 179.389 58.9933C179.364 59.517 179.251 60.0203 179.049 60.5031L178.131 59.9146Z" fill="white"/>
<path d="M186.437 61.9967L178.883 70.848L178.075 70.1583L185.629 61.3069L186.437 61.9967Z" fill="white"/>
<path d="M198.524 74.4626L189.796 82.1578L189.112 81.3821L191.875 69.7811L191.815 69.7129L184.505 76.1569L183.803 75.3599L192.531 67.6647L193.211 68.4361L190.455 80.0617L190.515 80.1299L197.833 73.6784L198.524 74.4626Z" fill="white"/>
<path d="M203.753 89.1591C204.028 88.868 204.257 88.5476 204.439 88.1978C204.624 87.8461 204.747 87.4749 204.807 87.0842C204.872 86.6947 204.864 86.2943 204.782 85.8828C204.703 85.4746 204.539 85.0648 204.289 84.6536C203.896 84.0059 203.376 83.5284 202.729 83.221C202.082 82.9137 201.35 82.8036 200.535 82.8908C199.721 82.9812 198.868 83.2975 197.974 83.8398C197.083 84.3801 196.411 84.9918 195.957 85.6749C195.503 86.3579 195.263 87.0617 195.237 87.7861C195.217 88.5118 195.41 89.2099 195.817 89.8803C196.188 90.4923 196.652 90.9506 197.209 91.2551C197.766 91.5597 198.377 91.6898 199.041 91.6456C199.707 91.6047 200.387 91.3697 201.079 90.9408L201.164 91.2883L199.23 88.1017L200.046 87.6065L202.339 91.3858L201.523 91.8809C200.675 92.3957 199.837 92.6691 199.01 92.7011C198.184 92.7331 197.42 92.5517 196.72 92.157C196.019 91.7622 195.433 91.1762 194.962 90.399C194.435 89.5311 194.183 88.6449 194.206 87.7405C194.232 86.8342 194.517 85.9678 195.062 85.1414C195.611 84.3163 196.404 83.5893 197.44 82.9606C198.221 82.4871 198.988 82.1633 199.742 81.9894C200.496 81.8155 201.211 81.7824 201.888 81.8902C202.567 82.0012 203.183 82.2457 203.735 82.6236C204.291 82.9996 204.761 83.5034 205.144 84.1348C205.474 84.6789 205.69 85.2281 205.791 85.7824C205.895 86.3399 205.9 86.8816 205.807 87.4076C205.72 87.9349 205.547 88.4275 205.288 88.8855C205.035 89.3447 204.712 89.7468 204.319 90.0917L203.753 89.1591Z" fill="white"/>
<path d="M212.109 101.973L213.027 101.712L215.334 109.828L214.416 110.089L213.408 106.542L203.133 109.463L202.842 108.441L213.117 105.52L212.109 101.973Z" fill="white"/>
<path d="M204.95 117.871L216.503 116.478L217.311 123.18L216.363 123.294L215.682 117.647L211.333 118.172L211.971 123.463L211.024 123.577L210.386 118.286L206.025 118.812L206.72 124.571L205.772 124.686L204.95 117.871Z" fill="white"/>
<path d="M213.508 139.073L213.553 138.006C213.953 137.943 214.327 137.814 214.672 137.62C215.021 137.43 215.329 137.186 215.596 136.886C215.862 136.586 216.074 136.242 216.231 135.855C216.387 135.467 216.475 135.044 216.494 134.586C216.525 133.852 216.362 133.174 216.005 132.553C215.648 131.935 215.107 131.429 214.38 131.034C213.657 130.644 212.76 130.426 211.689 130.381C210.611 130.336 209.695 130.477 208.942 130.806C208.189 131.138 207.608 131.597 207.201 132.183C206.797 132.772 206.579 133.434 206.549 134.168C206.529 134.626 206.581 135.055 206.705 135.454C206.828 135.854 207.009 136.214 207.245 136.535C207.486 136.856 207.772 137.126 208.104 137.344C208.436 137.567 208.799 137.726 209.193 137.822L209.148 138.89C208.618 138.773 208.128 138.574 207.677 138.293C207.23 138.017 206.843 137.671 206.516 137.255C206.188 136.843 205.938 136.374 205.767 135.847C205.596 135.321 205.523 134.747 205.549 134.126C205.59 133.15 205.871 132.294 206.391 131.557C206.915 130.821 207.632 130.256 208.544 129.862C209.455 129.472 210.518 129.302 211.733 129.353C212.947 129.404 213.992 129.663 214.868 130.128C215.743 130.597 216.408 131.22 216.865 131.997C217.325 132.775 217.534 133.652 217.493 134.628C217.467 135.249 217.347 135.814 217.132 136.325C216.921 136.835 216.633 137.282 216.268 137.665C215.907 138.051 215.492 138.364 215.023 138.602C214.554 138.844 214.049 139.001 213.508 139.073Z" fill="white"/>
<path d="M204.771 142.998L216.142 145.47L215.916 146.509L210.702 145.375L209.299 151.826L214.513 152.96L214.287 153.998L202.916 151.525L203.142 150.487L208.367 151.624L209.77 145.172L204.545 144.036L204.771 142.998Z" fill="white"/>
<path d="M208.696 168.778L197.939 164.339L198.334 163.383L209.964 160.745L209.998 160.661L200.991 156.944L201.396 155.962L212.153 160.4L211.76 161.351L200.111 164.006L200.077 164.09L209.095 167.811L208.696 168.778Z" fill="white"/>
<path d="M195.143 180.025C194.125 179.367 193.356 178.613 192.836 177.764C192.32 176.916 192.06 176.04 192.058 175.137C192.057 174.238 192.322 173.377 192.855 172.553C193.387 171.729 194.064 171.131 194.886 170.76C195.708 170.394 196.612 170.273 197.597 170.395C198.584 170.523 199.586 170.916 200.604 171.573C201.622 172.231 202.39 172.982 202.909 173.827C203.429 174.677 203.688 175.553 203.687 176.454C203.69 177.358 203.426 178.22 202.896 179.041C202.363 179.865 201.686 180.46 200.863 180.826C200.041 181.197 199.136 181.32 198.148 181.196C197.163 181.073 196.161 180.683 195.143 180.025ZM195.704 179.157C196.579 179.722 197.423 180.06 198.236 180.17C199.052 180.282 199.788 180.192 200.446 179.9C201.104 179.608 201.64 179.141 202.056 178.498C202.469 177.859 202.673 177.179 202.669 176.459C202.665 175.74 202.447 175.03 202.015 174.332C201.58 173.636 200.924 173.005 200.046 172.437C199.171 171.872 198.327 171.534 197.514 171.424C196.702 171.314 195.965 171.404 195.304 171.694C194.646 171.986 194.11 172.453 193.695 173.096C193.279 173.738 193.074 174.42 193.078 175.139C193.08 175.862 193.298 176.571 193.732 177.267C194.17 177.965 194.827 178.594 195.704 179.157Z" fill="white"/>
<path d="M187.133 180.47L195.76 188.279L195.047 189.067L187.128 181.899L183.406 186.01L182.699 185.369L187.133 180.47Z" fill="white"/>
<path d="M175.647 198.827C174.891 197.879 174.402 196.92 174.18 195.948C173.96 194.98 173.993 194.068 174.279 193.21C174.563 192.358 175.089 191.626 175.856 191.015C176.623 190.403 177.455 190.052 178.352 189.962C179.249 189.877 180.144 190.05 181.039 190.479C181.934 190.914 182.759 191.606 183.514 192.554C184.27 193.501 184.759 194.458 184.982 195.424C185.204 196.395 185.171 197.308 184.883 198.162C184.598 199.019 184.073 199.753 183.309 200.362C182.542 200.974 181.71 201.322 180.814 201.407C179.917 201.497 179.02 201.326 178.122 200.893C177.228 200.463 176.402 199.774 175.647 198.827ZM176.455 198.182C177.104 198.997 177.797 199.585 178.532 199.949C179.27 200.315 179.997 200.464 180.713 200.397C181.43 200.329 182.087 200.057 182.686 199.58C183.281 199.105 183.691 198.526 183.917 197.843C184.142 197.159 184.161 196.418 183.973 195.618C183.783 194.82 183.362 194.012 182.71 193.195C182.061 192.38 181.368 191.791 180.633 191.428C179.898 191.065 179.171 190.916 178.452 190.98C177.735 191.047 177.078 191.32 176.48 191.797C175.882 192.274 175.47 192.854 175.244 193.537C175.016 194.223 174.997 194.965 175.187 195.763C175.38 196.564 175.803 197.37 176.455 198.182Z" fill="white"/>
<path d="M164.71 207.574C164.987 207.863 165.296 208.108 165.636 208.307C165.978 208.509 166.343 208.65 166.73 208.729C167.116 208.813 167.516 208.825 167.931 208.764C168.343 208.705 168.76 208.561 169.184 208.332C169.85 207.972 170.353 207.476 170.692 206.845C171.03 206.214 171.177 205.489 171.13 204.67C171.08 203.853 170.806 202.984 170.309 202.065C169.813 201.149 169.235 200.447 168.575 199.96C167.916 199.473 167.225 199.198 166.502 199.137C165.779 199.081 165.072 199.239 164.382 199.612C163.752 199.953 163.272 200.394 162.94 200.935C162.608 201.476 162.448 202.079 162.46 202.745C162.467 203.413 162.669 204.103 163.063 204.815L162.711 204.883L165.99 203.109L166.444 203.949L162.556 206.052L162.102 205.213C161.63 204.34 161.398 203.49 161.407 202.662C161.416 201.835 161.635 201.081 162.064 200.401C162.492 199.721 163.107 199.165 163.906 198.732C164.799 198.249 165.697 198.042 166.599 198.109C167.503 198.18 168.354 198.508 169.153 199.092C169.949 199.682 170.636 200.509 171.213 201.576C171.647 202.378 171.933 203.161 172.069 203.922C172.206 204.684 172.203 205.4 172.062 206.071C171.918 206.743 171.643 207.346 171.238 207.88C170.835 208.416 170.309 208.86 169.659 209.212C169.1 209.515 168.541 209.703 167.982 209.777C167.42 209.853 166.879 209.831 166.358 209.712C165.836 209.599 165.352 209.402 164.907 209.121C164.461 208.846 164.076 208.503 163.751 208.093L164.71 207.574Z" fill="white"/>
<path d="M160.695 213.239L159.533 213.635L154.486 209.522L154.389 209.555L152.908 215.896L151.747 216.292L153.59 208.693L151.963 203.923L152.963 203.582L154.591 208.352L160.695 213.239Z" fill="white"/>
<path d="M130.26 216.485C130.367 217.127 130.686 217.622 131.217 217.971C131.749 218.319 132.398 218.468 133.166 218.418C133.706 218.382 134.176 218.259 134.576 218.046C134.972 217.834 135.277 217.556 135.489 217.212C135.699 216.872 135.79 216.494 135.762 216.078C135.742 215.772 135.659 215.508 135.511 215.286C135.364 215.064 135.173 214.877 134.939 214.726C134.702 214.578 134.443 214.455 134.163 214.355C133.88 214.256 133.595 214.176 133.31 214.115L132.063 213.844C131.686 213.766 131.307 213.66 130.926 213.526C130.545 213.391 130.194 213.213 129.872 212.991C129.546 212.773 129.279 212.497 129.071 212.161C128.86 211.83 128.738 211.422 128.706 210.938C128.666 210.318 128.79 209.75 129.078 209.234C129.367 208.718 129.803 208.294 130.385 207.964C130.967 207.637 131.677 207.446 132.516 207.391C133.306 207.339 134.001 207.425 134.6 207.647C135.2 207.874 135.681 208.209 136.044 208.652C136.407 209.095 136.629 209.621 136.711 210.231L135.623 210.302C135.555 209.847 135.378 209.47 135.093 209.17C134.807 208.869 134.448 208.65 134.013 208.512C133.579 208.377 133.102 208.327 132.58 208.361C132.002 208.399 131.494 208.529 131.057 208.751C130.616 208.977 130.279 209.273 130.044 209.637C129.807 210.006 129.703 210.423 129.734 210.888C129.759 211.281 129.883 211.603 130.104 211.854C130.326 212.109 130.626 212.315 131.005 212.473C131.38 212.63 131.812 212.763 132.301 212.872L133.717 213.189C134.645 213.401 135.377 213.731 135.911 214.178C136.445 214.625 136.737 215.221 136.786 215.965C136.827 216.589 136.696 217.148 136.395 217.642C136.089 218.141 135.66 218.541 135.107 218.843C134.55 219.149 133.914 219.325 133.2 219.372C132.478 219.42 131.83 219.329 131.257 219.101C130.684 218.873 130.22 218.537 129.865 218.093C129.506 217.654 129.295 217.14 129.234 216.552L130.26 216.485Z" fill="white"/>
<path d="M113.305 212.463C113.434 211.258 113.761 210.232 114.286 209.386C114.81 208.543 115.475 207.917 116.281 207.508C117.082 207.102 117.971 206.951 118.946 207.056C119.922 207.16 120.76 207.496 121.462 208.062C122.159 208.632 122.674 209.384 123.008 210.319C123.339 211.257 123.439 212.329 123.31 213.534C123.181 214.74 122.856 215.764 122.335 216.607C121.81 217.454 121.145 218.08 120.34 218.485C119.534 218.894 118.646 219.047 117.674 218.943C116.698 218.838 115.862 218.501 115.165 217.931C114.464 217.365 113.946 216.612 113.612 215.673C113.278 214.739 113.176 213.669 113.305 212.463ZM114.333 212.573C114.222 213.609 114.3 214.515 114.568 215.29C114.835 216.069 115.247 216.687 115.804 217.142C116.361 217.598 117.02 217.867 117.78 217.948C118.537 218.029 119.236 217.906 119.877 217.578C120.518 217.251 121.053 216.737 121.482 216.036C121.908 215.335 122.176 214.464 122.287 213.425C122.398 212.389 122.32 211.484 122.053 210.708C121.785 209.933 121.373 209.316 120.817 208.856C120.26 208.4 119.601 208.132 118.84 208.05C118.079 207.969 117.378 208.092 116.738 208.419C116.093 208.747 115.558 209.261 115.132 209.962C114.707 210.667 114.44 211.537 114.333 212.573Z" fill="white"/>
<path d="M109.301 205.512L106.212 216.73L105.188 216.448L108.024 206.15L102.677 204.678L102.93 203.757L109.301 205.512Z" fill="white"/>
<path d="M86.9576 209.585L85.9899 209.147L89.1711 202.129C89.498 201.408 89.9595 200.84 90.5556 200.424C91.1502 200.011 91.8237 199.778 92.576 199.724C93.3233 199.672 94.0954 199.827 94.8923 200.188C95.6858 200.548 96.3101 201.028 96.7653 201.63C97.2204 202.231 97.4888 202.891 97.5704 203.61C97.652 204.329 97.5294 205.049 97.2025 205.77L94.0213 212.788L93.0536 212.349L96.2043 205.399C96.4592 204.837 96.5609 204.278 96.5092 203.722C96.456 203.17 96.2588 202.664 95.9176 202.206C95.5729 201.746 95.0935 201.377 94.4794 201.099C93.8653 200.82 93.2718 200.703 92.6988 200.747C92.1258 200.791 91.6158 200.975 91.1687 201.301C90.7167 201.628 90.3632 202.073 90.1083 202.635L86.9576 209.585Z" fill="white"/>
<path d="M81.4628 205.372L80.9296 206.163L73.9313 201.45L74.4645 200.658L77.523 202.718L83.4901 193.858L84.3714 194.452L78.4043 203.312L81.4628 205.372Z" fill="white"/>
<path d="M68.1225 196.518L75.8334 187.804L76.6292 188.508L68.9182 197.222L68.1225 196.518Z" fill="white"/>
<path d="M60.3836 179.705C61.3071 178.92 62.2506 178.401 63.2142 178.149C64.175 177.899 65.0883 177.903 65.9542 178.161C66.8147 178.419 67.5628 178.921 68.1983 179.669C68.8338 180.416 69.2108 181.236 69.3292 182.13C69.4424 183.023 69.2983 183.924 68.897 184.832C68.4903 185.74 67.8253 186.586 66.9019 187.371C65.9784 188.156 65.0376 188.676 64.0793 188.929C63.1156 189.181 62.2023 189.177 61.3393 188.916C60.4734 188.658 59.724 188.157 59.0909 187.412C58.4554 186.665 58.0811 185.845 57.9679 184.951C57.8495 184.058 57.9923 183.156 58.3965 182.245C58.7978 181.337 59.4602 180.49 60.3836 179.705ZM61.0535 180.493C60.2599 181.168 59.6932 181.878 59.3533 182.625C59.0106 183.374 58.8842 184.105 58.9742 184.819C59.0643 185.533 59.3571 186.182 59.8527 186.765C60.3459 187.345 60.9376 187.736 61.6279 187.94C62.3182 188.144 63.0602 188.139 63.854 187.927C64.6453 187.711 65.4392 187.265 66.2357 186.588C67.0293 185.913 67.596 185.202 67.9358 184.456C68.2757 183.71 68.4021 182.978 68.3149 182.262C68.2249 181.548 67.9321 180.899 67.4364 180.316C66.9408 179.733 66.3478 179.34 65.6576 179.136C64.9649 178.93 64.2229 178.934 63.4315 179.15C62.6373 179.368 61.8446 179.815 61.0535 180.493Z" fill="white"/>
<path d="M47.6496 169.96L57.7341 164.155L58.25 165.051L53.2355 175.871L53.2809 175.949L61.7256 171.088L62.2558 172.008L52.1713 177.814L51.6582 176.923L56.6712 166.078L56.6258 165.999L48.1712 170.866L47.6496 169.96Z" fill="white"/>
<path d="M45.3432 156.423C44.7569 156.705 44.3712 157.151 44.186 157.759C44.0008 158.367 44.0401 159.032 44.3039 159.754C44.4898 160.263 44.7407 160.679 45.0567 161.003C45.3714 161.324 45.7238 161.538 46.114 161.646C46.4992 161.751 46.8875 161.732 47.2789 161.589C47.5671 161.484 47.797 161.329 47.9685 161.125C48.1401 160.922 48.2658 160.686 48.3456 160.419C48.4206 160.15 48.4665 159.867 48.4832 159.57C48.4987 159.27 48.4956 158.975 48.4742 158.684L48.384 157.411C48.3527 157.027 48.3481 156.634 48.3701 156.23C48.3922 155.827 48.4644 155.44 48.5869 155.068C48.7044 154.695 48.8951 154.361 49.1587 154.067C49.4175 153.771 49.7746 153.54 50.23 153.373C50.8135 153.16 51.3935 153.12 51.9701 153.252C52.5467 153.384 53.0752 153.683 53.5559 154.148C54.0329 154.615 54.4157 155.244 54.7042 156.034C54.9758 156.777 55.089 157.468 55.0436 158.105C54.9947 158.744 54.8087 159.3 54.4854 159.773C54.1621 160.246 53.7195 160.608 53.1574 160.857L52.7831 159.833C53.2006 159.64 53.5133 159.364 53.7212 159.006C53.9291 158.648 54.0385 158.241 54.0495 157.785C54.0569 157.331 53.971 156.858 53.7916 156.367C53.5928 155.823 53.3253 155.372 52.9892 155.015C52.6482 154.655 52.2699 154.415 51.8541 154.292C51.4336 154.168 51.0045 154.185 50.5669 154.345C50.1968 154.48 49.9224 154.689 49.7435 154.972C49.5611 155.257 49.4475 155.603 49.4028 156.01C49.3568 156.414 49.3505 156.866 49.3839 157.366L49.4773 158.814C49.5343 159.765 49.4233 160.56 49.1443 161.198C48.8653 161.836 48.3754 162.283 47.6745 162.539C47.0874 162.754 46.5143 162.786 45.9552 162.635C45.3912 162.482 44.8866 162.183 44.4413 161.736C43.9911 161.288 43.6432 160.727 43.3976 160.055C43.1494 159.375 43.0542 158.729 43.1122 158.115C43.1703 157.501 43.3622 156.961 43.688 156.495C44.009 156.027 44.4431 155.681 44.9904 155.457L45.3432 156.423Z" fill="white"/>
</g>
<defs>
<clipPath id="clip0_486_18">
<rect width="210" height="210" fill="white" transform="translate(202.845) rotate(75)"/>
</clipPath>
</defs>
</svg>
